<svg width="648" height="648" viewBox="0 0 648 648" fill="none" xmlns="http://www.w3.org/2000/svg">
<path d="M98.376 402.834C81.0298 353.189 80.5418 299.209 96.9874 249.259C113.433 199.308 145.894 156.176 189.34 126.547" stroke="#021513" stroke-width="12"/>
<path d="M23.7974 428.892C0.717537 362.837 0.0681063 291.015 21.9497 224.553C43.8313 158.092 87.0222 100.703 144.829 61.2797" stroke="#021513" stroke-width="12"/>
<path d="M296.098 476.935L599.757 505.5L623.546 252.617L202.405 213L178.616 465.884L204.502 468.319L195.886 559.914L296.098 476.935Z" fill="#021513"/>
<circle cx="28" cy="28" r="28" transform="matrix(-0.995605 -0.0936564 -0.0936564 0.995605 531.592 343.906)" fill="black"/>
<circle cx="28" cy="28" r="28" transform="matrix(-0.995605 -0.0936564 -0.0936564 0.995605 429.397 351.87)" fill="black"/>
<circle cx="28" cy="28" r="28" transform="matrix(-0.995605 -0.0936564 -0.0936564 0.995605 330.48 324.987)" fill="black"/>
</svg>
