<svg width="648" height="708" viewBox="0 0 648 708" fill="none" xmlns="http://www.w3.org/2000/svg">
<path d="M412.138 474.97L148 627.47L21 407.5L387.329 196L514.329 415.97L491.812 428.97L537.812 508.645L412.138 474.97Z" fill="#040B16"/>
<circle cx="180.879" cy="462.418" r="28" transform="rotate(-30 180.879 462.418)" fill="black"/>
<circle cx="259.597" cy="396.763" r="28" transform="rotate(-30 259.597 396.763)" fill="black"/>
<circle cx="355.816" cy="361.418" r="28" transform="rotate(-30 355.816 361.418)" fill="black"/>
<path d="M385.993 93.1801C436.781 106.821 481.653 136.831 513.654 178.562C545.655 220.292 563 271.412 563 324" stroke="#040B16" stroke-width="12"/>
<path d="M406.485 16.8839C474.061 35.0333 533.764 74.9639 576.343 130.488C618.922 186.012 642 254.029 642 324" stroke="#040B16" stroke-width="12"/>
</svg>
