<svg width="1440" height="32" viewBox="0 0 1440 32" fill="none" xmlns="http://www.w3.org/2000/svg">
<g clip-path="url(#clip0_337_544)">
<rect width="32.0001" height="1440" transform="translate(1440) rotate(90)" fill="black"/>
<path d="M1636 -149L1276 211" stroke="#262626"/>
<path d="M927 -148L567 212" stroke="#262626"/>
<path d="M915 -148L555 212" stroke="#262626"/>
<path d="M1624 -149L1264 211" stroke="#262626"/>
<path d="M903 -148L543 212" stroke="#262626"/>
<path d="M891 -148L531 212" stroke="#262626"/>
<path d="M1612 -149L1252 211" stroke="#262626"/>
<path d="M879 -148L519 212" stroke="#262626"/>
<path d="M867 -148L507 212" stroke="#262626"/>
<path d="M1600 -149L1240 211" stroke="#262626"/>
<path d="M855 -148L495 212" stroke="#262626"/>
<path d="M843 -148L483 212" stroke="#262626"/>
<path d="M1588 -149L1228 211" stroke="#262626"/>
<path d="M831 -148L471 212" stroke="#262626"/>
<path d="M819 -148L459 212" stroke="#262626"/>
<path d="M1576 -149L1216 211" stroke="#262626"/>
<path d="M807 -148L447 212" stroke="#262626"/>
<path d="M795 -148L435 212" stroke="#262626"/>
<path d="M1564 -149L1204 211" stroke="#262626"/>
<path d="M783 -148L423 212" stroke="#262626"/>
<path d="M771 -148L411 212" stroke="#262626"/>
<path d="M1552 -149L1192 211" stroke="#262626"/>
<path d="M759 -148L399 212" stroke="#262626"/>
<path d="M747 -148L387 212" stroke="#262626"/>
<path d="M1540 -149L1180 211" stroke="#262626"/>
<path d="M735 -148L375 212" stroke="#262626"/>
<path d="M723 -148L363 212" stroke="#262626"/>
<path d="M1528 -149L1168 211" stroke="#262626"/>
<path d="M711 -148L351 212" stroke="#262626"/>
<path d="M699 -148L339 212" stroke="#262626"/>
<path d="M1516 -149L1156 211" stroke="#262626"/>
<path d="M687 -148L327 212" stroke="#262626"/>
<path d="M675 -148L315 212" stroke="#262626"/>
<path d="M1504 -149L1144 211" stroke="#262626"/>
<path d="M663 -148L303 212" stroke="#262626"/>
<path d="M651 -148L291 212" stroke="#262626"/>
<path d="M1492 -149L1132 211" stroke="#262626"/>
<path d="M639 -148L279 212" stroke="#262626"/>
<path d="M627 -148L267 212" stroke="#262626"/>
<path d="M1480 -149L1120 211" stroke="#262626"/>
<path d="M615 -148L255 212" stroke="#262626"/>
<path d="M603 -148L243 212" stroke="#262626"/>
<path d="M1468 -149L1108 211" stroke="#262626"/>
<path d="M591 -148L231 212" stroke="#262626"/>
<path d="M579 -148L219 212" stroke="#262626"/>
<path d="M1456 -149L1096 211" stroke="#262626"/>
<path d="M567 -148L207 212" stroke="#262626"/>
<path d="M555 -148L195 212" stroke="#262626"/>
<path d="M1444 -149L1084 211" stroke="#262626"/>
<path d="M543 -148L183 212" stroke="#262626"/>
<path d="M531 -148L171 212" stroke="#262626"/>
<path d="M1432 -149L1072 211" stroke="#262626"/>
<path d="M519 -148L159 212" stroke="#262626"/>
<path d="M507 -148L147 212" stroke="#262626"/>
<path d="M1420 -149L1060 211" stroke="#262626"/>
<path d="M495 -148L135 212" stroke="#262626"/>
<path d="M483 -148L123 212" stroke="#262626"/>
<path d="M1408 -149L1048 211" stroke="#262626"/>
<path d="M471 -148L111 212" stroke="#262626"/>
<path d="M459 -148L99 212" stroke="#262626"/>
<path d="M1396 -149L1036 211" stroke="#262626"/>
<path d="M447 -148L87 212" stroke="#262626"/>
<path d="M435 -148L75 212" stroke="#262626"/>
<path d="M1384 -149L1024 211" stroke="#262626"/>
<path d="M423 -148L63 212" stroke="#262626"/>
<path d="M411 -148L51 212" stroke="#262626"/>
<path d="M1372 -149L1012 211" stroke="#262626"/>
<path d="M399 -148L39 212" stroke="#262626"/>
<path d="M387 -148L27 212" stroke="#262626"/>
<path d="M1360 -149L1000 211" stroke="#262626"/>
<path d="M375 -148L15 212" stroke="#262626"/>
<path d="M363 -148L2.99998 212" stroke="#262626"/>
<path d="M1348 -149L988 211" stroke="#262626"/>
<path d="M351 -148L-9.00002 212" stroke="#262626"/>
<path d="M339 -148L-21 212" stroke="#262626"/>
<path d="M1336 -149L976 211" stroke="#262626"/>
<path d="M327 -148L-33 212" stroke="#262626"/>
<path d="M315 -148L-45 212" stroke="#262626"/>
<path d="M1324 -149L964 211" stroke="#262626"/>
<path d="M303 -148L-57 212" stroke="#262626"/>
<path d="M291 -148L-69 212" stroke="#262626"/>
<path d="M1312 -149L952 211" stroke="#262626"/>
<path d="M279 -148L-81 212" stroke="#262626"/>
<path d="M219 -148L-141 212" stroke="#262626"/>
<path d="M267 -148L-93 212" stroke="#262626"/>
<path d="M207 -148L-153 212" stroke="#262626"/>
<path d="M1300 -149L940 211" stroke="#262626"/>
<path d="M255 -148L-105 212" stroke="#262626"/>
<path d="M195 -148L-165 212" stroke="#262626"/>
<path d="M243 -148L-117 212" stroke="#262626"/>
<path d="M183 -148L-177 212" stroke="#262626"/>
<path d="M1288 -149L928 211" stroke="#262626"/>
<path d="M231 -148L-129 212" stroke="#262626"/>
<path d="M171 -148L-189 212" stroke="#262626"/>
<path d="M219 -148L-141 212" stroke="#262626"/>
<path d="M159 -148L-201 212" stroke="#262626"/>
<path d="M1276 -149L916 211" stroke="#262626"/>
<path d="M1264 -149L904 211" stroke="#262626"/>
<path d="M1252 -149L892 211" stroke="#262626"/>
<path d="M1240 -149L880 211" stroke="#262626"/>
<path d="M1228 -149L868 211" stroke="#262626"/>
<path d="M1216 -149L856 211" stroke="#262626"/>
<path d="M1204 -149L844 211" stroke="#262626"/>
<path d="M1192 -149L832 211" stroke="#262626"/>
<path d="M1180 -149L820 211" stroke="#262626"/>
<path d="M1168 -149L808 211" stroke="#262626"/>
<path d="M1156 -149L796 211" stroke="#262626"/>
<path d="M1144 -149L784 211" stroke="#262626"/>
<path d="M1132 -149L772 211" stroke="#262626"/>
<path d="M1120 -149L760 211" stroke="#262626"/>
<path d="M1108 -149L748 211" stroke="#262626"/>
<path d="M1096 -149L736 211" stroke="#262626"/>
<path d="M1084 -149L724 211" stroke="#262626"/>
<path d="M1072 -149L712 211" stroke="#262626"/>
<path d="M1060 -149L700 211" stroke="#262626"/>
<path d="M1048 -149L688 211" stroke="#262626"/>
<path d="M1036 -149L676 211" stroke="#262626"/>
<path d="M1024 -149L664 211" stroke="#262626"/>
<path d="M1012 -149L652 211" stroke="#262626"/>
<path d="M1000 -149L640 211" stroke="#262626"/>
<path d="M988 -149L628 211" stroke="#262626"/>
<path d="M976 -149L616 211" stroke="#262626"/>
<path d="M964 -149L604 211" stroke="#262626"/>
<path d="M952 -149L592 211" stroke="#262626"/>
<path d="M940 -149L580 211" stroke="#262626"/>
<path d="M928 -149L568 211" stroke="#262626"/>
</g>
<defs>
<clipPath id="clip0_337_544">
<rect width="32.0001" height="1440" fill="white" transform="translate(1440) rotate(90)"/>
</clipPath>
</defs>
</svg>
