<svg width="451" height="43" viewBox="0 0 451 43" fill="none" xmlns="http://www.w3.org/2000/svg">
<path fill-rule="evenodd" clip-rule="evenodd" d="M407.578 12.0423H407.214V42.3281H407.578V42.6927H414.146V18.6102H425.823V42.6927H432.391V42.3281H432.755V18.6102H444.066V42.6927H451V17.8801H444.797V11.6777H432.025V12.0423H431.661V17.8801H426.552V12.0423H426.187V11.6777H407.578V12.0423Z" fill="#F8FAFC"/>
<path fill-rule="evenodd" clip-rule="evenodd" d="M6.93356 6.93528H24.4481V23.7196H6.93356V6.93528ZM6.20342 5.84063H0V42.6945H6.93247V30.6532H25.1771V24.8154H31.3805V5.84172H25.1771V0.00390625H6.20342V5.84172V5.84063Z" fill="#F8FAFC"/>
<path fill-rule="evenodd" clip-rule="evenodd" d="M237.906 42.6916H244.84V30.6504H250.313V36.4882H262.354V42.3271H262.719V42.6916H269.287V42.3271H269.651V35.7592H263.449V29.9203H251.042V24.8126H263.083V24.447H263.449V18.6092H269.651V12.0412H269.287V11.6767H262.719V12.0412H262.354V17.879H250.313V23.7179H244.84V0H237.906V42.6916Z" fill="#F8FAFC"/>
<path fill-rule="evenodd" clip-rule="evenodd" d="M81.736 11.6767H75.897V12.0412H75.5325V18.6092H81.736V36.8538H87.5738V42.6916H106.913V36.8538H112.751V36.4882H113.115V29.9203H106.183V35.7592H88.6684V18.6092H106.913V12.0412H106.547V11.6767H88.6684V0H81.736V11.6767Z" fill="#F8FAFC"/>
<path fill-rule="evenodd" clip-rule="evenodd" d="M119.683 42.6916H126.617V24.8126H132.455V24.447H132.819V18.6092H144.131V42.6916H151.064V17.879H144.86V12.0412H131.724V17.879H126.617V0H119.683V42.6916Z" fill="#F8FAFC"/>
<path fill-rule="evenodd" clip-rule="evenodd" d="M44.5175 18.6099H62.032V35.7599H44.5175V18.6099ZM43.4229 17.8798H37.5851V36.8535H43.4229V42.3268H43.7874V42.6913H62.7611V36.8535H68.2344V42.6913H75.1668V36.1234H74.8023V35.7588H68.9645V17.8798H62.7611V12.042H43.4218V17.8798H43.4229Z" fill="#F8FAFC"/>
<path fill-rule="evenodd" clip-rule="evenodd" d="M164.93 18.6099H182.444V35.7599H164.93V18.6099ZM163.835 17.8798H157.997V36.8535H163.835V42.6913H183.174V36.8535H188.648V42.6913H195.216V42.3268H195.58V36.1234H195.216V35.7588H189.378V17.8798H183.174V12.042H163.835V17.8798Z" fill="#F8FAFC"/>
<path fill-rule="evenodd" clip-rule="evenodd" d="M282.423 17.8798H276.219V24.8134H282.423V30.6512H300.666V35.7599H276.584V36.1245H276.219V42.6924H301.396V36.8546H307.6V29.921H301.396V24.0832H283.152V18.9745H307.234V18.6099H307.6V12.042H282.423V17.8798Z" fill="#F8FAFC"/>
<path fill-rule="evenodd" clip-rule="evenodd" d="M375.103 18.6099H392.253V35.7599H375.103V18.6099ZM374.008 17.8798H368.17V36.8535H374.008V42.6913H393.348V36.8535H399.551V17.8798H393.348V12.042H374.008V17.8798Z" fill="#F8FAFC"/>
<path fill-rule="evenodd" clip-rule="evenodd" d="M336.79 17.8798H330.588V36.8546H336.79V42.6924H355.765V36.8546H362.333V30.2866H361.967V29.921H355.399V30.2866H355.035V36.1245H337.52V18.9745H355.035V24.8134H361.967V24.4478H362.333V18.2454H361.967V17.8798H355.765V12.042H336.79V17.8798Z" fill="#F8FAFC"/>
<path fill-rule="evenodd" clip-rule="evenodd" d="M206.161 17.8798H199.959V36.8546H206.161V42.6924H225.136V36.8546H231.338V29.921H224.77V30.2866H224.406V36.1245H206.891V18.9745H224.406V24.8134H231.338V17.8798H225.136V12.042H206.161V17.8798Z" fill="#F8FAFC"/>
<path fill-rule="evenodd" clip-rule="evenodd" d="M315.627 41.9637H322.559V35.0312H315.627V41.9637Z" fill="#F8FAFC"/>
</svg>
