<svg width="1262" height="120" viewBox="0 0 1262 120" fill="none" xmlns="http://www.w3.org/2000/svg">
<path fill-rule="evenodd" clip-rule="evenodd" d="M1140.03 33.6627H1139.01V118.331H1140.03V119.351H1158.39V52.0243H1191.03V119.351H1209.39V118.331H1210.41V52.0243H1242.04V119.351H1261.42V49.9832H1244.08V32.6436H1208.37V33.6627H1207.35V49.9832H1193.07V33.6627H1192.05V32.6436H1140.03V33.6627Z" fill="#F8FAFC"/>
<path fill-rule="evenodd" clip-rule="evenodd" d="M19.9644 19.3826H68.9289V66.3058H19.9644V19.3826ZM17.9232 16.3223H0.580627V119.353H19.9614V85.6897H70.9671V69.3692H88.3097V16.3254H70.9671V0.00488281H17.9232V16.3254V16.3223Z" fill="#F8FAFC"/>
<path fill-rule="evenodd" clip-rule="evenodd" d="M665.684 119.351H685.068V85.6879H700.369V102.008H734.032V118.332H735.051V119.351H753.413V118.332H754.432V99.9702H737.092V83.6467H702.407V69.3673H736.07V68.3453H737.092V52.0248H754.432V33.6631H753.413V32.644H735.051V33.6631H734.032V49.9836H700.369V66.3071H685.068V0H665.684V119.351Z" fill="#F8FAFC"/>
<path fill-rule="evenodd" clip-rule="evenodd" d="M229.086 32.644H212.762V33.6631H211.743V52.0248H229.086V103.03H245.406V119.351H299.472V103.03H315.793V102.008H316.812V83.6467H297.431V99.9702H248.467V52.0248H299.472V33.6631H298.45V32.644H248.467V0H229.086V32.644Z" fill="#F8FAFC"/>
<path fill-rule="evenodd" clip-rule="evenodd" d="M335.173 119.351H354.557V69.3673H370.877V68.3453H371.896V52.0248H403.521V119.351H422.902V49.9836H405.559V33.6631H368.836V49.9836H354.557V0H335.173V119.351Z" fill="#F8FAFC"/>
<path fill-rule="evenodd" clip-rule="evenodd" d="M125.036 52.0238H174.001V99.9692H125.036V52.0238ZM121.976 49.9826H105.655V103.026H121.976V118.328H122.995V119.347H176.039V103.026H191.34V119.347H210.721V100.985H209.702V99.9661H193.381V49.9826H176.039V33.6621H121.973V49.9826H121.976Z" fill="#F8FAFC"/>
<path fill-rule="evenodd" clip-rule="evenodd" d="M461.667 52.0238H510.631V99.9692H461.667V52.0238ZM458.607 49.9826H442.286V103.026H458.607V119.347H512.672V103.026H527.974V119.347H546.336V118.328H547.355V100.985H546.336V99.9661H530.015V49.9826H512.672V33.6621H458.607V49.9826Z" fill="#F8FAFC"/>
<path fill-rule="evenodd" clip-rule="evenodd" d="M790.136 49.9826H772.793V69.3664H790.136V85.6869H841.139V99.9692H773.812V100.988H772.793V119.35H843.18V103.029H860.522V83.6457H843.18V67.3252H792.174V53.0429H859.5V52.0238H860.522V33.6621H790.136V49.9826Z" fill="#F8FAFC"/>
<path fill-rule="evenodd" clip-rule="evenodd" d="M1049.24 52.0238H1097.18V99.9692H1049.24V52.0238ZM1046.18 49.9826H1029.86V103.026H1046.18V119.347H1100.24V103.026H1117.59V49.9826H1100.24V33.6621H1046.18V49.9826Z" fill="#F8FAFC"/>
<path fill-rule="evenodd" clip-rule="evenodd" d="M942.128 49.9826H924.788V103.029H942.128V119.35H995.175V103.029H1013.54V84.6678H1012.51V83.6457H994.153V84.6678H993.134V100.988H944.169V53.0429H993.134V69.3664H1012.51V68.3443H1013.54V51.0047H1012.51V49.9826H995.175V33.6621H942.128V49.9826Z" fill="#F8FAFC"/>
<path fill-rule="evenodd" clip-rule="evenodd" d="M576.936 49.9826H559.596V103.029H576.936V119.35H629.982V103.029H647.322V83.6457H628.96V84.6678H627.941V100.988H578.977V53.0429H627.941V69.3664H647.322V49.9826H629.982V33.6621H576.936V49.9826Z" fill="#F8FAFC"/>
<path fill-rule="evenodd" clip-rule="evenodd" d="M882.963 117.31H902.344V97.9297H882.963V117.31Z" fill="#F8FAFC"/>
</svg>
