<svg width="134" height="24" viewBox="0 0 134 24" fill="none" xmlns="http://www.w3.org/2000/svg">
<path fill-rule="evenodd" clip-rule="evenodd" d="M120.754 3.56747H120.646V12.5403H120.754V12.6483H122.7V5.51337H126.159V12.6483H128.105V12.5403H128.213V5.51337H131.564V12.6483H133.618V5.29705H131.78V3.45947H127.997V3.56747H127.889V5.29705H126.375V3.56747H126.267V3.45947H120.754V3.56747Z" fill="#F8FAFC"/>
<path fill-rule="evenodd" clip-rule="evenodd" d="M2.05421 2.054H7.24326V7.02672H2.05421V2.054ZM1.8379 1.72968H0V12.6484H2.05389V9.08094H7.45926V7.35136H9.29715V1.73H7.45926V0.000427246H1.8379V1.73V1.72968Z" fill="#F8FAFC"/>
<path fill-rule="evenodd" clip-rule="evenodd" d="M70.4848 12.6483H72.539V9.08083H74.1606V10.8104H77.728V12.5403H77.836V12.6483H79.7819V12.5403H79.8899V10.5944H78.0524V8.86452H74.3766V7.35126H77.944V7.24294H78.0524V5.51336H79.8899V3.56747H79.7819V3.45947H77.836V3.56747H77.728V5.29705H74.1606V7.02694H72.539V0H70.4848V12.6483Z" fill="#F8FAFC"/>
<path fill-rule="evenodd" clip-rule="evenodd" d="M24.216 3.45947H22.4861V3.56747H22.3781V5.51336H24.216V10.9187H25.9456V12.6483H31.6752V10.9187H33.4048V10.8104H33.5128V8.86452H31.4589V10.5944H26.2699V5.51336H31.6752V3.56747H31.5669V3.45947H26.2699V0H24.216V3.45947Z" fill="#F8FAFC"/>
<path fill-rule="evenodd" clip-rule="evenodd" d="M35.4587 12.6483H37.5129V7.35126H39.2425V7.24294H39.3505V5.51336H42.702V12.6483H44.7559V5.29705H42.918V3.56747H39.0262V5.29705H37.5129V0H35.4587V12.6483Z" fill="#F8FAFC"/>
<path fill-rule="evenodd" clip-rule="evenodd" d="M13.1893 5.51336H18.3783V10.5944H13.1893V5.51336ZM12.8649 5.29704H11.1354V10.9184H12.8649V12.54H12.9729V12.648H18.5943V10.9184H20.2159V12.648H22.2698V10.7021H22.1618V10.5941H20.4322V5.29704H18.5943V3.56747H12.8646V5.29704H12.8649Z" fill="#F8FAFC"/>
<path fill-rule="evenodd" clip-rule="evenodd" d="M48.864 5.51336H54.053V10.5944H48.864V5.51336ZM48.5397 5.29704H46.8101V10.9184H48.5397V12.648H54.2693V10.9184H55.8909V12.648H57.8368V12.54H57.9448V10.7021H57.8368V10.5941H56.1072V5.29704H54.2693V3.56747H48.5397V5.29704Z" fill="#F8FAFC"/>
<path fill-rule="evenodd" clip-rule="evenodd" d="M83.6737 5.29704H81.8358V7.35125H83.6737V9.08083H89.0787V10.5944H81.9438V10.7024H81.8358V12.6483H89.2951V10.9187H91.133V8.86451H89.2951V7.13494H83.8897V5.62136H91.0246V5.51336H91.133V3.56747H83.6737V5.29704Z" fill="#F8FAFC"/>
<path fill-rule="evenodd" clip-rule="evenodd" d="M111.132 5.51336H116.213V10.5944H111.132V5.51336ZM110.808 5.29704H109.078V10.9184H110.808V12.648H116.538V10.9184H118.375V5.29704H116.538V3.56747H110.808V5.29704Z" fill="#F8FAFC"/>
<path fill-rule="evenodd" clip-rule="evenodd" d="M99.7812 5.29704H97.9436V10.9187H99.7812V12.6483H105.403V10.9187H107.349V8.97283H107.24V8.86451H105.295V8.97283H105.187V10.7024H99.9975V5.62136H105.187V7.35125H107.24V7.24294H107.349V5.40536H107.24V5.29704H105.403V3.56747H99.7812V5.29704Z" fill="#F8FAFC"/>
<path fill-rule="evenodd" clip-rule="evenodd" d="M61.0796 5.29704H59.2421V10.9187H61.0796V12.6483H66.7013V10.9187H68.5389V8.86451H66.593V8.97283H66.485V10.7024H61.296V5.62136H66.485V7.35125H68.5389V5.29704H66.7013V3.56747H61.0796V5.29704Z" fill="#F8FAFC"/>
<path fill-rule="evenodd" clip-rule="evenodd" d="M93.5112 12.432H95.5651V10.3781H93.5112V12.432Z" fill="#F8FAFC"/>
<path fill-rule="evenodd" clip-rule="evenodd" d="M106.592 23.9994H107.457V20.8642H107.565V21.0805H107.673V21.4048H107.781V21.6211H107.889V21.9455H107.997V22.1615H108.105V22.3778H108.213V22.7021H108.322V22.9184H108.43V23.2427H108.538V23.4587H108.646V23.783H108.754V23.9994H109.835V19.2426H108.97V22.3778H108.862V22.2698H108.754V21.9455H108.646V21.7291H108.538V21.4048H108.43V21.1885H108.322V20.8642H108.213V20.6482H108.105V20.3239H107.997V20.1076H107.889V19.8913H107.781V19.5669H107.673V19.3509H107.565V19.2426H106.592V23.9994Z" fill="#F8FAFC"/>
<path fill-rule="evenodd" clip-rule="evenodd" d="M102.7 23.9994H103.565V20.7562H103.673V21.0805H103.781V21.2968H103.889V21.5128H103.997V21.8371H104.106V22.0535H104.214V22.3778H104.322V22.5941H104.43V22.8101H104.538V23.1344H104.646V23.3507H104.754V23.675H104.862V23.8914H104.97V23.9994H105.943V19.2426H105.079V22.3778H104.97V22.1615H104.862V21.8371H104.754V21.6211H104.646V21.2968H104.538V21.0805H104.43V20.8642H104.322V20.5399H104.214V20.3239H104.106V19.9996H103.997V19.7833H103.889V19.4589H103.781V19.2426H102.7V23.9994Z" fill="#F8FAFC"/>
<path fill-rule="evenodd" clip-rule="evenodd" d="M130.375 23.8914H130.483V23.9994H131.24V20.7562H131.348V20.9725H131.456V21.2968H131.564V21.5128H131.672V21.8371H131.78V22.0535H131.888V22.2698H131.997V22.5941H132.105V22.8101H132.213V23.1344H132.321V23.3507H132.429V23.675H132.537V23.8914H132.645V23.9994H133.618V19.2426H132.753V22.3778H132.645V22.1615H132.537V21.8371H132.429V21.6211H132.321V21.2968H132.213V21.0805H132.105V20.7562H131.997V20.5399H131.888V20.3239H131.78V19.9996H131.672V19.7833H131.564V19.4589H131.456V19.2426H130.375V23.8914Z" fill="#F8FAFC"/>
<path fill-rule="evenodd" clip-rule="evenodd" d="M64.7554 20.7562H64.8634V20.5399H64.9714V20.4319H65.0794V20.2156H65.1874V20.1076H65.4037V19.9996H65.6201V19.8916H66.0524V19.9996H66.2687V20.1076H66.485V20.2156H66.593V20.3236H66.701V20.5399H66.809V20.8642H66.917V22.2694H66.809V22.4858H66.701V22.7021H66.593V22.8101H66.485V22.9181H66.377V23.0261H66.269V23.1341H65.9447V23.2421H65.7284V23.1341H65.4041V23.0261H65.1878V22.9181H65.0798V22.8101H64.9718V22.5938H64.8638V22.2694H64.7558V20.7559L64.7554 20.7562ZM65.2961 19.2426H64.9718V19.3506H64.7554V19.4586H64.6474V19.5666H64.5394V19.6746H64.4314V19.7826H64.3235V19.8906H64.2155V19.9986H64.1075V20.2149H63.9995V20.4312H63.8915V20.8635H63.7835V22.3771H63.8915V22.7014H63.9995V22.9177H64.1075V23.1341H64.2155V23.3504H64.3235V23.4584H64.4314V23.5664H64.5394V23.6744H64.6474V23.7824H64.8638V23.8904H65.0801V23.9984H66.4853V23.8904H66.7017V23.7824H66.8097V23.6744H67.026V23.5664H67.134V23.4584H67.242V23.2421H67.35V23.1341H67.458V22.9177H67.566V22.7014H67.6739V22.2691H67.7819V20.9719H67.6739V20.5395H67.566V20.2152H67.458V19.9989H67.35V19.8909H67.242V19.7829H67.134V19.5666H66.9177V19.4586H66.8097V19.3506H66.5933V19.2426H66.269V19.1346H65.2961V19.2426Z" fill="#F8FAFC"/>
<path fill-rule="evenodd" clip-rule="evenodd" d="M113.402 22.3778H113.294V22.5941H113.186V22.8104H113.078V22.9184H112.97V23.0264H112.754V23.1344H112.43V23.2424H112.213V23.1344H111.889V23.0264H111.781V22.9184H111.673V22.8104H111.565V22.7024H111.457V22.4861H111.349V22.0538H111.241V21.0808H111.349V20.6485H111.457V20.4322H111.565V20.3242H111.673V20.2162H111.781V20.1082H111.889V20.0002H112.213V19.8922H112.538V20.0002H112.862V20.1082H112.97V20.2162H113.078V20.3242H113.186V20.4322H113.294V20.6485H113.402V21.0808H113.51V21.9458H113.402V22.3781L113.402 22.3778ZM111.781 19.2426H111.457V19.3506H111.349V19.4586H111.132V19.5666H111.024V19.6746H110.916V19.7826H110.808V19.9989H110.7V20.1069H110.592V20.3232H110.484V20.6476H110.376V21.4042H110.268V21.8365H110.376V22.4851H110.484V22.8094H110.592V23.0258H110.7V23.2421H110.808V23.3501H110.916V23.5664H111.024V23.6744H111.241V23.7824H111.349V23.8904H111.673V23.9984H112.97V23.8904H113.294V23.7824H113.402V23.6744H113.51V23.5664H113.618V23.4584H113.726V23.3504H113.834V23.2424H113.942V23.0261H114.05V22.8098H114.158V22.4855H114.266V21.8368H114.374V21.4045H114.266V20.6479H114.158V20.3236H114.05V20.1072H113.942V19.8909H113.834V19.7829H113.726V19.6749H113.618V19.5669H113.51V19.4589H113.294V19.3509H113.186V19.2429H112.862V19.1349H111.781V19.2429V19.2426Z" fill="#F8FAFC"/>
<path fill-rule="evenodd" clip-rule="evenodd" d="M126.808 21.1885H126.916V20.7562H127.024V20.5399H127.132V20.3235H127.24V20.2156H127.348V20.1076H127.456V19.9996H127.78V19.8916H128.212V19.9996H128.429V20.1076H128.537V20.2156H128.753V20.4319H128.861V20.6482H128.969V20.9725H129.077V22.1618H128.969V22.4861H128.861V22.7024H128.753V22.8104H128.645V22.9184H128.537V23.0264H128.321V23.1344H128.104V23.2424H127.78V23.1344H127.456V23.0264H127.348V22.9184H127.24V22.8104H127.132V22.7024H127.024V22.3781H126.916V21.9458H126.808V21.1891V21.1885ZM127.456 19.2426H127.132V19.3506H126.916V19.4586H126.808V19.5666H126.7V19.6746H126.592V19.7826H126.484V19.8906H126.376V20.1069H126.268V20.2149H126.16V20.5392H126.052V20.8635H125.944V22.2688H126.052V22.7011H126.16V22.9174H126.268V23.1337H126.376V23.3501H126.484V23.4581H126.592V23.566H126.7V23.674H126.808V23.782H127.024V23.89H127.24V23.998H128.646V23.89H128.862V23.782H129.078V23.674H129.186V23.566H129.294V23.4581H129.402V23.2417H129.51V23.1337H129.618V22.9174H129.726V22.7011H129.834V22.3768H129.942V20.8632H129.834V20.5389H129.726V20.2146H129.618V19.9983H129.51V19.8903H129.402V19.6739H129.294V19.5659H129.186V19.4579H128.97V19.3499H128.754V19.242H128.429V19.134H127.456V19.242V19.2426Z" fill="#F8FAFC"/>
<path fill-rule="evenodd" clip-rule="evenodd" d="M98.0516 22.3778H97.9436V22.5941H97.8356V22.8104H97.7276V22.9184H97.6196V23.0264H97.4033V23.1344H97.079V23.2424H96.8627V23.1344H96.5384V23.0264H96.4304V22.9184H96.3224V22.8104H96.2144V22.7024H96.1064V22.4861H95.9984V22.1618H95.8904V20.9725H95.9984V20.6482H96.1064V20.4319H96.2144V20.3239H96.3224V20.2159H96.4304V20.1079H96.5384V19.9999H96.8627V19.8919H97.187V19.9999H97.5113V20.1079H97.6193V20.2159H97.7273V20.3239H97.8353V20.4319H97.9433V20.7562H98.0513V21.1885H98.1593V21.8371H98.0513V22.3778H98.0516ZM96.43 19.2426H96.2137V19.3506H95.9974V19.4586H95.7811V19.5666H95.6731V19.6746H95.5651V19.8909H95.4571V19.9989H95.3491V20.2152H95.2411V20.4316H95.1331V20.7559H95.0251V22.4854H95.1331V22.8098H95.2411V23.0261H95.3491V23.2424H95.4571V23.3504H95.5651V23.4584H95.6731V23.5664H95.7811V23.6744H95.8891V23.7824H96.1054V23.8904H96.3217V23.9984H97.727V23.8904H97.9433V23.7824H98.0513V23.6744H98.1593V23.5664H98.2673V23.4584H98.3753V23.3504H98.4833V23.2424H98.5913V23.0261H98.6993V22.9181H98.8073V22.5938H98.9153V22.0531H99.0233V21.1882H98.9153V20.6475H98.8073V20.3232H98.6993V20.1069H98.5913V19.8906H98.4833V19.7826H98.3753V19.6746H98.2673V19.5666H98.1593V19.4586H98.0513V19.3506H97.835V19.2426H97.5107V19.1346H96.4297V19.2426H96.43Z" fill="#F8FAFC"/>
<path fill-rule="evenodd" clip-rule="evenodd" d="M74.2686 21.1885H74.1606V21.2965H73.8363V21.4045H72.9713V19.9992H74.0523V20.1072H74.1603V20.2152H74.2683V20.4316H74.3763V20.8639H74.2683V21.1882L74.2686 21.1885ZM72.1064 23.9994H72.9713V22.1615H73.6199V22.2695H73.7279V22.4858H73.8359V22.8101H73.9439V23.0264H74.0519V23.3507H74.1599V23.567H74.2679V23.8914H74.3759V23.9994H75.2409V23.675H75.1329V23.3507H75.0249V23.1344H74.9169V22.9181H74.8089V22.7018H74.7009V22.3775H74.5929V22.1611H74.4849V21.9448H74.7012V21.8368H74.8092V21.7288H74.9172V21.6208H75.0252V21.5128H75.1332V21.1885H75.2412V20.1076H75.1332V19.8913H75.0252V19.6749H74.9172V19.5669H74.8092V19.4589H74.5929V19.3509H74.3766V19.243H72.1064V23.9997V23.9994Z" fill="#F8FAFC"/>
<path fill-rule="evenodd" clip-rule="evenodd" d="M87.0249 23.9994H87.8898V23.8914H87.9978V21.9455H89.5114V23.9994H90.376V19.2426H89.5114V21.1885H87.9978V19.2426H87.0249V23.9994Z" fill="#F8FAFC"/>
<path fill-rule="evenodd" clip-rule="evenodd" d="M44.4316 23.8914H44.5396V23.9994H45.2965V23.8914H45.4045V21.9455H46.9181V23.9994H47.7827V19.2426H46.9181V21.1885H45.4045V19.2426H44.4316V23.8914Z" fill="#F8FAFC"/>
<path fill-rule="evenodd" clip-rule="evenodd" d="M81.8358 21.2968H81.9438V20.8645H82.0518V20.3239H82.1598V20.1076H82.4841V20.3239H82.5921V20.8645H82.7001V21.4052H82.8081V21.8375H81.8351V21.2968H81.8358ZM81.5115 19.243H81.4035V19.6753H81.2955V20.2159H81.1875V20.6482H81.0795V21.1888H80.9715V21.6212H80.8635V22.0535H80.7555V22.5941H80.6475V23.0264H80.5395V23.567H80.4315V23.9994H81.2964V23.8914H81.4044V23.3507H81.5124V22.8101H81.6204V22.7021H83.0257V23.2427H83.1337V23.7834H83.2417V23.9997H84.1066V23.4591H83.9986V23.0267H83.8906V22.4861H83.7827V22.0538H83.6747V21.5132H83.5667V21.0808H83.4587V20.6485H83.3507V20.1079H83.2427V19.6756H83.1347V19.2433H83.0267V19.1353H81.5131V19.2433L81.5115 19.243Z" fill="#F8FAFC"/>
<path fill-rule="evenodd" clip-rule="evenodd" d="M119.348 21.4048H119.456V20.9725H119.564V20.4319H119.672V20.1076H119.997V20.2156H120.105V20.7562H120.213V21.2968H120.321V21.8375H119.348V21.4052L119.348 21.4048ZM119.024 19.3509H118.916V19.7833H118.808V20.3239H118.7V20.7562H118.592V21.2968H118.484V21.7291H118.376V22.1615H118.268V22.7021H118.16V23.1344H118.052V23.675H117.944V23.9994H118.809V23.8914H118.917V23.459H119.025V22.9184H119.133V22.7021H120.538V23.1344H120.646V23.675H120.754V23.8914H120.862V23.9994H121.619V23.3507H121.511V22.9184H121.403V22.3778H121.295V21.9455H121.187V21.4048H121.079V20.9725H120.971V20.5402H120.863V19.9996H120.755V19.5673H120.647V19.2429H120.539V19.1349H119.025V19.3513L119.024 19.3509Z" fill="#F8FAFC"/>
<path fill-rule="evenodd" clip-rule="evenodd" d="M49.5126 21.5128H49.6206V20.9722H49.7286V20.5399H49.8366V20.1076H50.1609V20.2156H50.2689V20.6479H50.3769V21.1885H50.4849V21.7291H50.5929V21.8371H49.512V21.5128H49.5126ZM49.1883 19.4589H49.0803V19.8912H48.9723V20.3236H48.8643V20.8642H48.7563V21.2965H48.6483V21.8371H48.5403V22.2694H48.4323V22.7018H48.3243V23.2424H48.2163V23.6747H48.1083V23.891H48.2163V23.999H48.973V23.891H49.081V23.4587H49.1889V22.9181H49.2969V22.7018H50.7022V23.0261H50.8102V23.5667H50.9182V23.891H51.0262V23.999H51.7828V23.891H51.8908V23.783H51.7828V23.2424H51.6748V22.8101H51.5668V22.3778H51.4588V21.8371H51.3508V21.4048H51.2428V20.8642H51.1348V20.4319H51.0268V19.9996H50.9188V19.4589H50.8108V19.2426H50.7029V19.1346H49.1893V19.4589H49.1883Z" fill="#F8FAFC"/>
<path fill-rule="evenodd" clip-rule="evenodd" d="M68.2146 22.9184H68.3229V23.2427H68.4309V23.3507H68.5389V23.567H68.6472V23.675H68.8632V23.783H68.9715V23.8914H69.1875V23.9994H70.4848V23.8914H70.7011V23.783H70.8091V23.675H71.0254V23.567H71.1334V23.4587H71.2417V23.2427H71.3497V22.9184H71.4577V22.2698H71.566V19.2426H70.5931V22.7021H70.4848V22.9184H70.3768V23.0264H70.2688V23.1344H69.5118V23.0264H69.2958V22.8101H69.1875V22.4858H69.0795V19.2426H68.2146V22.9184Z" fill="#F8FAFC"/>
<path fill-rule="evenodd" clip-rule="evenodd" d="M55.4582 23.9994H56.3232V21.9455H56.5392V22.1615H56.6475V22.3778H56.7555V22.4858H56.8635V22.7021H56.9718V22.9184H57.0798V23.0264H57.1878V23.2427H57.2961V23.4587H57.4041V23.675H57.5121V23.783H57.6205V23.9994H58.5934V23.783H58.4851V23.567H58.3771V23.3507H58.2691V23.2427H58.1608V23.0264H58.0528V22.9184H57.9448V22.7021H57.8365V22.4858H57.7285V22.3778H57.6205V22.1615H57.5121V22.0535H57.4041V21.8371H57.2961V21.6211H57.1878V21.5128H57.2961V21.2968H57.4041V21.1885H57.5121V20.9725H57.6205V20.7562H57.7285V20.6482H57.8365V20.4319H57.9448V20.3239H58.0528V20.1076H58.1608V19.9996H58.2691V19.7833H58.3771V19.5669H58.4851V19.4589H58.5934V19.2426H57.6205V19.3509H57.5121V19.5669H57.4041V19.6753H57.2961V19.8913H57.1878V20.1076H57.0798V20.2156H56.9718V20.4319H56.8635V20.6482H56.7555V20.7562H56.6475V20.9725H56.5392V21.0805H56.3232V19.2426H55.4582V23.9994Z" fill="#F8FAFC"/>
<path fill-rule="evenodd" clip-rule="evenodd" d="M114.375 19.5669H114.484V19.9996H114.592V20.4319H114.7V20.9725H114.808V21.4048H114.916V21.9455H115.024V22.3778H115.132V22.8101H115.24V23.3507H115.348V23.783H115.457V23.9994H117.078V23.567H117.186V23.1344H117.294V22.7021H117.403V22.1615H117.511V21.7291H117.619V21.1885H117.727V20.7562H117.835V20.3239H117.943V19.7833H118.051V19.2426H117.186V19.4589H117.078V19.9996H116.97V20.5399H116.862V21.0805H116.754V21.6211H116.646V22.1615H116.538V22.7021H116.43V23.1344H116.105V22.8101H115.997V22.2698H115.889V21.7291H115.781V21.1885H115.673V20.6482H115.565V20.1076H115.457V19.5669H115.348V19.2426H114.375V19.5669Z" fill="#F8FAFC"/>
<path fill-rule="evenodd" clip-rule="evenodd" d="M79.5656 21.4048H79.4576V21.5128H79.3496V21.6208H78.3767V19.9993H79.2416V20.1073H79.4579V20.2153H79.5659V20.4316H79.6739V21.2965H79.5659V21.4045L79.5656 21.4048ZM77.5117 23.9994H78.2683V23.8914H78.3763V22.3778H79.4573V22.2698H79.7816V22.1618H79.9979V22.0538H80.1059V21.9458H80.2139V21.8378H80.3219V21.6215H80.4299V21.4052H80.5379V20.1079H80.4299V19.8916H80.3219V19.6753H80.2139V19.5673H80.1059V19.4593H79.8896V19.3513H79.5653V19.2433H77.5114V24L77.5117 23.9994Z" fill="#F8FAFC"/>
<path fill-rule="evenodd" clip-rule="evenodd" d="M60.215 19.4589H60.323V19.7833H60.431V20.1076H60.5393V20.5399H60.6473V20.8642H60.7553V21.1885H60.8636V21.6211H60.9716V21.9455H61.0796V22.2698H61.1879V22.4858H61.6202V23.9994H62.4852V22.4858H62.8095V22.3778H62.9175V22.1615H63.0255V21.7291H63.1338V21.4048H63.2418V21.0805H63.3498V20.7562H63.4581V20.3239H63.5661V19.9996H63.6741V19.6753H63.7825V19.2426H62.8095V19.5669H62.7012V19.9996H62.5932V20.4319H62.4852V20.7562H62.3769V21.1885H62.2689V21.5128H61.7282V21.0805H61.6202V20.7562H61.5122V20.3239H61.4039V19.9996H61.2959V19.5669H61.1879V19.2426H60.215V19.4589Z" fill="#F8FAFC"/>
<path fill-rule="evenodd" clip-rule="evenodd" d="M53.5124 19.2426H53.0801V19.3509H52.8638V19.4589H52.7558V19.5669H52.6475V19.6752H52.5395V19.7832H52.4315V19.8912H52.3232V19.9996H52.2152V20.2156H52.1072V20.4319H51.9988V20.8642H51.8908V22.4858H51.9988V22.8101H52.1072V23.0264H52.2152V23.2427H52.3232V23.3507H52.4315V23.4587H52.5395V23.567H52.6475V23.675H52.7558V23.783H52.9718V23.8913H53.2961V23.9993H54.5934V23.8913H54.8097V23.783H54.9177V22.9184H54.7017V23.0264H54.5934V23.1344H54.3774V23.2427H53.7287V23.1344H53.4044V23.0264H53.2961V22.9184H53.1881V22.8101H53.0801V22.7021H52.9718V22.3778H52.8638V22.0535H52.7558V21.1885H52.8638V20.7562H52.9718V20.5399H53.0801V20.3239H53.1881V20.2156H53.2961V20.1076H53.5124V19.9996H54.4854V20.1076H54.5934V20.2156H54.9177V19.3509H54.7017V19.2426H54.269V19.1346H53.5124V19.2426Z" fill="#F8FAFC"/>
<path fill-rule="evenodd" clip-rule="evenodd" d="M121.402 19.9996H122.375V23.9994H123.24V19.9996H124.213V19.2426H121.402V19.9996Z" fill="#F8FAFC"/>
<path fill-rule="evenodd" clip-rule="evenodd" d="M83.8897 19.9996H84.8627V23.9994H85.7276V19.9996H86.5926V19.8913H86.7006V19.2426H83.8897V19.9996Z" fill="#F8FAFC"/>
<path fill-rule="evenodd" clip-rule="evenodd" d="M92.3219 19.9996H93.2948V23.9994H94.1598V19.9996H95.0247V19.2426H92.3219V19.9996Z" fill="#F8FAFC"/>
<path fill-rule="evenodd" clip-rule="evenodd" d="M101.187 23.9994H102.051V19.2426H101.187V23.9994Z" fill="#F8FAFC"/>
<path fill-rule="evenodd" clip-rule="evenodd" d="M124.537 23.8914H124.645V23.9994H125.402V19.2426H124.537V23.8914Z" fill="#F8FAFC"/>
</svg>
