<svg width="1227" height="928" viewBox="0 0 1227 928" fill="none" xmlns="http://www.w3.org/2000/svg">
<rect y="8" width="532" height="709" fill="#040B16"/>
<path d="M108.587 53.2701C120.793 41.4219 140.207 41.4219 152.413 53.2701V53.2701C158.168 58.8561 165.839 62.0334 173.858 62.1528V62.1528C190.867 62.406 204.594 76.1333 204.847 93.1424V93.1424C204.967 101.161 208.144 108.832 213.73 114.587V114.587C225.578 126.793 225.578 146.207 213.73 158.413V158.413C208.144 164.168 204.967 171.839 204.847 179.858V179.858C204.594 196.867 190.867 210.594 173.858 210.847V210.847C165.839 210.967 158.168 214.144 152.413 219.73V219.73C140.207 231.578 120.793 231.578 108.587 219.73V219.73C102.832 214.144 95.1615 210.967 87.1424 210.847V210.847C70.1333 210.594 56.406 196.867 56.1528 179.858V179.858C56.0334 171.839 52.8561 164.168 47.2701 158.413V158.413C35.4219 146.207 35.4219 126.793 47.2701 114.587V114.587C52.8561 108.832 56.0334 101.161 56.1528 93.1424V93.1424C56.406 76.1333 70.1333 62.406 87.1424 62.1528V62.1528C95.1615 62.0334 102.832 58.8561 108.587 53.2701V53.2701Z" fill="black"/>
<g filter="url(#filter0_d_416_580)">
<rect x="285" y="155" width="532" height="709" fill="#021513"/>
<path d="M393.587 200.27C405.793 188.422 425.207 188.422 437.413 200.27V200.27C443.168 205.856 450.839 209.033 458.858 209.153V209.153C475.867 209.406 489.594 223.133 489.847 240.142V240.142C489.967 248.161 493.144 255.832 498.73 261.587V261.587C510.578 273.793 510.578 293.207 498.73 305.413V305.413C493.144 311.168 489.967 318.839 489.847 326.858V326.858C489.594 343.867 475.867 357.594 458.858 357.847V357.847C450.839 357.967 443.168 361.144 437.413 366.73V366.73C425.207 378.578 405.793 378.578 393.587 366.73V366.73C387.832 361.144 380.161 357.967 372.142 357.847V357.847C355.133 357.594 341.406 343.867 341.153 326.858V326.858C341.033 318.839 337.856 311.168 332.27 305.413V305.413C320.422 293.207 320.422 273.793 332.27 261.587V261.587C337.856 255.832 341.033 248.161 341.153 240.142V240.142C341.406 223.133 355.133 209.406 372.142 209.153V209.153C380.161 209.033 387.832 205.856 393.587 200.27V200.27Z" fill="black"/>
</g>
<g filter="url(#filter1_d_416_580)">
<rect x="663" y="32" width="532" height="709" fill="#040B16"/>
<path d="M771.587 77.2701C783.793 65.4219 803.207 65.4219 815.413 77.2701V77.2701C821.168 82.8561 828.839 86.0334 836.858 86.1528V86.1528C853.867 86.406 867.594 100.133 867.847 117.142V117.142C867.967 125.161 871.144 132.832 876.73 138.587V138.587C888.578 150.793 888.578 170.207 876.73 182.413V182.413C871.144 188.168 867.967 195.839 867.847 203.858V203.858C867.594 220.867 853.867 234.594 836.858 234.847V234.847C828.839 234.967 821.168 238.144 815.413 243.73V243.73C803.207 255.578 783.793 255.578 771.587 243.73V243.73C765.832 238.144 758.161 234.967 750.142 234.847V234.847C733.133 234.594 719.406 220.867 719.153 203.858V203.858C719.033 195.839 715.856 188.168 710.27 182.413V182.413C698.422 170.207 698.422 150.793 710.27 138.587V138.587C715.856 132.832 719.033 125.161 719.153 117.142V117.142C719.406 100.133 733.133 86.406 750.142 86.1528V86.1528C758.161 86.0334 765.832 82.8561 771.587 77.2701V77.2701Z" fill="black"/>
</g>
<defs>
<filter id="filter0_d_416_580" x="221" y="123" width="628" height="805" filterUnits="userSpaceOnUse" color-interpolation-filters="sRGB">
<feFlood flood-opacity="0" result="BackgroundImageFix"/>
<feColorMatrix in="SourceAlpha" type="matrix" values="0 0 0 0 0 0 0 0 0 0 0 0 0 0 0 0 0 0 127 0" result="hardAlpha"/>
<feOffset dx="-16" dy="16"/>
<feGaussianBlur stdDeviation="24"/>
<feComposite in2="hardAlpha" operator="out"/>
<feColorMatrix type="matrix" values="0 0 0 0 0 0 0 0 0 0 0 0 0 0 0 0 0 0 1 0"/>
<feBlend mode="normal" in2="BackgroundImageFix" result="effect1_dropShadow_416_580"/>
<feBlend mode="normal" in="SourceGraphic" in2="effect1_dropShadow_416_580" result="shape"/>
</filter>
<filter id="filter1_d_416_580" x="599" y="0" width="628" height="805" filterUnits="userSpaceOnUse" color-interpolation-filters="sRGB">
<feFlood flood-opacity="0" result="BackgroundImageFix"/>
<feColorMatrix in="SourceAlpha" type="matrix" values="0 0 0 0 0 0 0 0 0 0 0 0 0 0 0 0 0 0 127 0" result="hardAlpha"/>
<feOffset dx="-16" dy="16"/>
<feGaussianBlur stdDeviation="24"/>
<feComposite in2="hardAlpha" operator="out"/>
<feColorMatrix type="matrix" values="0 0 0 0 0 0 0 0 0 0 0 0 0 0 0 0 0 0 1 0"/>
<feBlend mode="normal" in2="BackgroundImageFix" result="effect1_dropShadow_416_580"/>
<feBlend mode="normal" in="SourceGraphic" in2="effect1_dropShadow_416_580" result="shape"/>
</filter>
</defs>
</svg>
